<svg width="390" height="148" viewBox="0 0 390 148" fill="none" xmlns="http://www.w3.org/2000/svg">
<path d="M11.7694 63.7795H199.428C202.315 66.3561 204.141 70.1002 204.141 74.2807C204.141 82.0558 197.849 88.3573 190.082 88.3573H86.9455C81.9713 88.3573 77.9366 92.397 77.9366 97.3791C77.9366 102.362 81.9713 106.401 86.9455 106.401H154.402C159.858 106.401 164.279 110.828 164.279 116.288C164.279 121.75 159.858 126.177 154.402 126.177H47.7049C41.9234 126.177 37.2407 130.866 37.2407 136.654C37.2407 142.439 41.9234 147.13 47.7049 147.13H262.066C267.847 147.13 272.53 142.439 272.53 136.654C272.53 130.866 267.847 126.177 262.066 126.177H209.046C203.593 126.177 199.172 121.75 199.172 116.288C199.172 110.828 203.593 106.401 209.046 106.401H311.417C316.394 106.401 320.427 102.362 320.427 97.3791C320.427 92.397 316.394 88.3573 311.417 88.3573H267.885C260.121 88.3573 253.824 82.0558 253.824 74.2807C253.824 70.1002 255.652 66.3561 258.539 63.7795H367.049C373.55 63.7795 378.822 58.5018 378.822 51.9944C378.822 45.4854 373.55 40.21 367.049 40.21H167.111H147.115C142.633 40.21 138.999 36.5718 138.999 32.0853C138.999 27.5974 142.633 23.9591 147.115 23.9591H200.727C205.475 23.9591 209.322 20.1068 209.322 15.3522C209.322 10.5997 205.475 6.74448 200.727 6.74448H58.6508C53.9029 6.74448 50.054 10.5997 50.054 15.3522C50.054 20.1068 53.9029 23.9591 58.6508 23.9591H102.218C106.698 23.9591 110.33 27.5974 110.33 32.0853C110.33 36.5718 106.698 40.21 102.218 40.21H101.984H11.7694C5.26874 40.21 0 45.4854 0 51.9944C0 58.5018 5.26801 63.7795 11.7694 63.7795Z" fill="#E2D8BD"/>
<g opacity="0.7">
<path d="M269.539 57.229H269.253L269.04 57.4195C266.001 60.1314 264.074 64.0758 264.074 68.4803C264.074 76.6689 270.706 83.3068 278.885 83.3068H322.417C326.979 83.3068 330.677 87.0098 330.677 91.5787C330.677 96.1482 326.979 99.8505 322.417 99.8505H220.046C214.178 99.8505 209.422 104.614 209.422 110.488C209.422 116.363 214.178 121.126 220.046 121.126H273.066C278.432 121.126 282.78 125.479 282.78 130.854C282.78 136.226 278.432 140.58 273.066 140.58H58.7049C53.3386 140.58 48.9907 136.226 48.9907 130.854C48.9907 125.479 53.3386 121.126 58.7049 121.126H165.402C171.273 121.126 176.029 116.363 176.029 110.488C176.029 104.614 171.273 99.8505 165.402 99.8505H97.9455C93.3864 99.8505 89.6866 96.1482 89.6866 91.5787C89.6866 87.0098 93.3865 83.3068 97.9455 83.3068H201.082C209.264 83.3068 215.891 76.6686 215.891 68.4803C215.891 66.2852 215.334 63.5641 214.443 61.379C213.998 60.2867 213.453 59.286 212.82 58.5447C212.198 57.8171 211.392 57.229 210.428 57.229H22.7694C16.6833 57.229 11.75 52.2882 11.75 46.1939C11.75 40.0983 16.6838 35.1595 22.7694 35.1595H112.984H113.218C118.114 35.1595 122.08 31.1844 122.08 26.2849C122.08 21.384 118.114 17.4087 113.218 17.4087H69.6508C65.3179 17.4087 61.804 13.893 61.804 9.55174C61.804 5.21254 65.3181 1.69406 69.6508 1.69406H211.727C216.059 1.69406 219.572 5.21237 219.572 9.55174C219.572 13.8931 216.059 17.4087 211.727 17.4087H158.115C153.218 17.4087 149.249 21.3835 149.249 26.2849C149.249 31.1848 153.218 35.1595 158.115 35.1595H178.111H378.049C384.135 35.1595 389.072 40.0986 389.072 46.1939C389.072 52.2879 384.135 57.229 378.049 57.229H269.539Z" stroke="#C7BA90" stroke-width="1.5"/>
</g>
</svg>
