<svg width="368" height="129" viewBox="0 0 368 129" fill="none" xmlns="http://www.w3.org/2000/svg">
<path d="M355.285 96.3703H260.111C253.818 96.3703 248.716 91.2609 248.716 84.9599C248.716 78.6561 253.818 73.5467 260.111 73.5467H274.833H310.462C317.272 73.5467 322.794 68.0183 322.794 61.1989C322.794 54.3803 317.272 48.8511 310.462 48.8511H195.797C187.66 48.8511 181.065 42.2459 181.065 34.0976C181.065 25.9515 187.66 19.3469 195.797 19.3469H236.075C241.289 19.3469 245.518 15.1157 245.518 9.89644C245.518 4.67436 241.289 0.441772 236.075 0.441772H77.4744C72.2604 0.441772 68.0331 4.67436 68.0331 9.89644C68.0331 15.1157 72.2604 19.3469 77.4744 19.3469H114.278C122.413 19.3469 129.01 25.9515 129.01 34.0976C129.01 42.2459 122.413 48.8511 114.278 48.8511H19.5708C12.7623 48.8518 7.23877 54.381 7.23877 61.1996C7.23877 68.019 12.7623 73.5474 19.5708 73.5474H197.047C203.344 73.5474 208.447 78.6568 208.447 84.9606C208.447 91.2616 203.344 96.371 197.047 96.371H121.75C115.079 96.371 109.674 101.784 109.674 108.461C109.674 115.139 115.079 120.552 121.75 120.552H355.285C361.957 120.552 367.36 115.138 367.36 108.461C367.36 101.784 361.956 96.3703 355.285 96.3703Z" fill="#E2D8BD"/>
<path d="M252.873 105.131H348.047C354.302 105.131 359.371 110.207 359.371 116.471C359.371 122.735 354.303 127.813 348.047 127.813H114.512C108.255 127.813 103.186 122.736 103.186 116.471C103.186 110.208 108.255 105.131 114.512 105.131H189.809C196.521 105.131 201.959 99.6854 201.959 92.9709C201.959 86.2537 196.521 80.8076 189.809 80.8076H12.332C5.93853 80.8076 0.75 75.6158 0.75 69.2099C0.75 62.8047 5.93852 57.6121 12.332 57.6114C12.3321 57.6114 12.3321 57.6114 12.3321 57.6114H107.039C115.589 57.6114 122.521 50.6694 122.521 42.1079C122.521 33.5484 115.589 26.6072 107.039 26.6072H70.2356C65.4365 26.6072 61.5444 22.7124 61.5444 17.9067C61.5444 13.0979 65.4368 9.20203 70.2356 9.20203H228.837C233.636 9.20203 237.529 13.098 237.529 17.9067C237.529 22.7123 233.636 26.6072 228.837 26.6072H188.559C180.006 26.6072 173.077 33.5485 173.077 42.1079C173.077 50.6693 180.005 57.6114 188.559 57.6114H303.223C309.618 57.6114 314.805 62.8038 314.805 69.2092C314.805 75.6152 309.618 80.8069 303.223 80.8069H267.595H252.873C246.164 80.8069 240.727 86.2531 240.727 92.9702C240.727 99.6845 246.165 105.131 252.873 105.131Z" stroke="#C7BA90" stroke-width="1.5"/>
</svg>
