<svg width="1280" height="651" viewBox="0 0 1280 651" fill="none" xmlns="http://www.w3.org/2000/svg">
<path d="M0 150.231H1280V651H0V150.231Z" fill="#4B3333"/>
<path fill-rule="evenodd" clip-rule="evenodd" d="M0 0L42.6667 24.7255C85.3333 49.451 170.667 98.9019 256 113.737C341.333 128.573 426.667 108.792 512 93.9568C597.333 79.1215 682.667 69.2313 768 79.1215C853.333 89.0117 938.667 118.682 1024 108.792C1109.33 98.9019 1194.67 49.451 1237.33 24.7255L1280 0V237.365H1237.33C1194.67 237.365 1109.33 237.365 1024 237.365C938.667 237.365 853.333 237.365 768 237.365C682.667 237.365 597.333 237.365 512 237.365C426.667 237.365 341.333 237.365 256 237.365C170.667 237.365 85.3333 237.365 42.6667 237.365H0V0Z" fill="#4B3333"/>
</svg>
