<svg width="70" height="70" viewBox="0 0 70 70" fill="none" xmlns="http://www.w3.org/2000/svg">
<circle opacity="0.5" cx="35" cy="35" r="35" fill="#D04848"/>
<circle opacity="0.6" cx="35" cy="35" r="30" fill="#D04848"/>
<circle cx="35" cy="35" r="25" fill="#D04848"/>
<g clip-path="url(#clip0_2085_2112)">
<path d="M51 32.7435C51 25.5835 43.8225 19.7585 35 19.7585C26.1775 19.7585 19 25.584 19 32.7435C19 39.162 24.692 44.5375 32.381 45.5535C32.902 45.666 33.611 45.8975 33.791 46.3425C33.952 46.7475 33.896 47.3805 33.8425 47.7895L33.614 49.1595C33.544 49.5645 33.2925 50.7415 35 50.022C36.7075 49.3025 44.214 44.596 47.5715 40.732H47.571C49.89 38.19 51 35.609 51 32.7435Z" fill="#FFFDF7"/>
<path d="M31.7485 29.284H30.626C30.454 29.284 30.3145 29.424 30.3145 29.5955V36.567C30.3145 36.6078 30.3225 36.6483 30.3382 36.686C30.3539 36.7237 30.3768 36.7579 30.4058 36.7867C30.4347 36.8155 30.4691 36.8383 30.5069 36.8538C30.5446 36.8693 30.5851 36.8772 30.626 36.877H31.7485C31.7893 36.8772 31.8298 36.8693 31.8675 36.8538C31.9053 36.8383 31.9397 36.8155 31.9686 36.7867C31.9976 36.7579 32.0205 36.7237 32.0362 36.686C32.0519 36.6483 32.06 36.6078 32.06 36.567V29.6C32.06 29.4285 31.92 29.2885 31.7485 29.2885M39.4735 29.2835H38.3515C38.179 29.2835 38.0395 29.4235 38.0395 29.595V33.737L34.8395 29.422C34.8325 29.411 34.8245 29.4005 34.8155 29.3905L34.8135 29.3885C34.8076 29.3817 34.8012 29.3754 34.7945 29.3695L34.7725 29.3495C34.7695 29.3475 34.7675 29.3455 34.7645 29.3435L34.7485 29.3325L34.7385 29.3265L34.722 29.3165C34.719 29.3155 34.715 29.3135 34.712 29.3115C34.706 29.3085 34.7005 29.3055 34.694 29.3035C34.6875 29.3015 34.687 29.3005 34.684 29.3005C34.678 29.2975 34.6715 29.2965 34.6655 29.2945L34.6545 29.2915C34.6485 29.2905 34.643 29.2885 34.637 29.2875L34.624 29.2855C34.62 29.2845 34.613 29.2835 34.6075 29.2835L34.5915 29.2825C34.5875 29.2825 34.5845 29.282 34.5805 29.282H33.4585C33.2865 29.282 33.147 29.422 33.147 29.5935V36.565C33.147 36.6058 33.155 36.6463 33.1707 36.684C33.1864 36.7217 33.2093 36.7559 33.2383 36.7847C33.2672 36.8135 33.3016 36.8363 33.3394 36.8518C33.3771 36.8673 33.4176 36.8752 33.4585 36.875H34.5805C34.7525 36.875 34.8925 36.736 34.8925 36.565V32.425L38.091 36.745C38.1126 36.7751 38.1393 36.8012 38.17 36.822C38.179 36.829 38.186 36.833 38.1925 36.837C38.1955 36.839 38.1985 36.841 38.2015 36.842C38.2045 36.843 38.2115 36.847 38.2165 36.849C38.2215 36.851 38.2265 36.853 38.2315 36.856L38.2615 36.867C38.2888 36.8745 38.3171 36.8782 38.3455 36.878H39.4675C39.5083 36.8782 39.5488 36.8703 39.5865 36.8548C39.6243 36.8393 39.6587 36.8165 39.6876 36.7877C39.7166 36.7589 39.7395 36.7247 39.7552 36.687C39.7709 36.6493 39.779 36.6088 39.779 36.568V29.6C39.779 29.4285 39.639 29.2885 39.4675 29.2885" fill="#D04848"/>
<path d="M29.043 35.1321H25.993V29.6001C25.993 29.4281 25.853 29.2886 25.6815 29.2886H24.5595C24.3875 29.2886 24.248 29.4286 24.248 29.6001V36.5711C24.248 36.6515 24.2792 36.7287 24.335 36.7866C24.341 36.7926 24.342 36.7946 24.343 36.7956C24.3995 36.8491 24.475 36.8826 24.558 36.8826H29.042C29.214 36.8826 29.3535 36.7426 29.3535 36.5711V35.4486C29.3535 35.2766 29.2145 35.1371 29.042 35.1371M45.671 31.0301C45.843 31.0301 45.9825 30.8901 45.9825 30.7186V29.6001C45.9825 29.4281 45.8435 29.2886 45.671 29.2886H41.187C41.103 29.2886 41.027 29.3221 40.971 29.3766C40.965 29.3816 40.963 29.3836 40.962 29.3856C40.9085 29.4356 40.8755 29.5166 40.8755 29.6006V36.5721C40.8755 36.6525 40.9067 36.7297 40.9625 36.7876L40.9705 36.7956C41.0284 36.8514 41.1057 36.8826 41.186 36.8826H45.67C45.842 36.8826 45.9815 36.7426 45.9815 36.5711V35.4481C45.9815 35.2761 45.8425 35.1366 45.67 35.1366H42.621V33.9581H45.67C45.711 33.9583 45.7516 33.9504 45.7895 33.9348C45.8274 33.9192 45.8618 33.8962 45.8908 33.8673C45.9197 33.8383 45.9427 33.8039 45.9582 33.766C45.9738 33.7281 45.9817 33.6875 45.9815 33.6466V32.5201C45.9815 32.3481 45.8425 32.2081 45.67 32.2081H42.621V31.0301H45.67H45.671Z" fill="#D04848"/>
</g>
<defs>
<clipPath id="clip0_2085_2112">
<rect width="32" height="32" fill="white" transform="translate(19 19)"/>
</clipPath>
</defs>
</svg>
