<svg width="162" height="165" viewBox="0 0 162 165" fill="none" xmlns="http://www.w3.org/2000/svg">
<path d="M131.219 63.9077C126.273 59.5595 119.605 63.3628 116.543 67.9353C114.724 70.6543 113.523 73.8593 112.174 76.8239C110.899 77.0376 109.618 77.2299 108.343 77.3848C103.654 77.9617 98.9274 78.1647 94.2062 78.0472C93.0272 78.0151 91.8482 77.9671 90.6693 77.8976C82.5071 78.1861 71.3042 80.8569 67.5699 76.0494C63.3021 70.7077 77.7059 75.5152 82.4698 71.744C82.7899 71.4235 83.19 70.5421 83.27 69.1799C83.43 68.6191 83.19 67.0166 82.4698 66.5358C81.7496 66.055 81.3495 65.5743 79.9891 65.414C78.9488 65.0134 77.9086 65.3339 76.3081 65.3339C75.3479 65.6544 73.8275 65.3339 72.7872 65.3339C71.907 65.2538 70.3066 65.414 68.4661 65.3339C66.0655 65.2538 65.9054 64.2923 65.9054 62.3693C66.0655 61.0071 65.2652 59.8052 64.385 59.3245C63.4248 58.7636 62.6245 58.7636 61.5843 58.6835C60.624 58.6034 58.8636 58.6034 58.3834 59.3245C57.3432 60.2059 57.0231 61.0071 56.863 61.9686C57.1031 63.491 56.703 64.8532 56.863 66.2153C56.9431 67.5774 56.783 68.7793 56.863 70.3017C56.4629 71.9843 56.783 73.1061 56.863 75.3283C56.3616 78.1807 52.6272 79.2491 50.3013 77.2726C49.9812 76.4714 49.7412 76.231 49.7412 74.3881C49.7412 73.026 49.5011 71.744 49.6611 70.5421C49.4211 69.1799 49.7412 68.6992 49.6611 67.5774C49.7412 66.8563 48.7809 65.7345 48.2208 65.0134C47.3405 64.2923 46.4603 64.0519 45.26 64.2122C44.1397 63.8917 43.0994 64.2923 42.2992 65.0134C41.0189 65.8147 40.9388 66.7762 40.8588 67.4973C40.8588 68.5389 40.8588 69.5004 40.9388 70.3818C41.2589 71.8241 40.7788 73.3465 41.0989 74.6285C41.419 75.8304 40.9388 76.7118 40.4587 77.3528C39.9786 78.3944 38.2981 78.4745 37.9781 78.3143C36.0576 78.3143 34.2171 78.3944 33.0168 78.3944C31.6564 78.2341 31.0962 78.8751 30.5361 79.5963C29.8159 79.9969 29.6559 81.1988 29.7359 82.2404C29.6559 83.3622 29.976 84.4839 30.5361 84.8846C31.0962 85.4454 32.0565 86.0063 33.0168 86.0865C33.977 86.1666 35.1773 86.0063 36.5377 86.1666C37.4179 86.407 38.4582 86.3268 39.9786 86.1666C41.0189 86.4871 42.6193 86.3268 43.4195 86.1666C44.4598 86.1666 45.9802 86.0063 46.8604 86.1559C62.2298 84.0619 78.234 84.0619 93.8861 86.1719C95.4759 86.2147 97.0656 86.22 98.6554 86.1879C101.835 86.1238 105.009 85.9102 108.178 85.5416C107.895 86.1612 107.612 86.7755 107.33 87.3952C104.705 93.1215 101.168 99.4033 104.833 105.509C107.148 109.36 111.592 111.214 113.955 114.889C116.532 118.895 108.615 122.704 106.369 124.942C100.971 130.321 101.189 138.136 105.366 144.22C107.564 147.42 110.488 149.909 113.241 152.596C115.524 154.824 118.132 157.558 118.463 160.913C118.677 163.103 120.181 164.989 122.534 164.989C124.572 164.989 126.823 163.119 126.604 160.913C126.06 155.368 123.211 151.01 119.322 147.153C115.951 143.804 110.717 140.262 110.306 135.065C109.933 130.31 116.207 127.933 118.927 124.974C122.304 121.31 123.809 116.385 121.515 111.737C119.834 108.335 116.617 106.209 113.918 103.698C112.91 102.763 111.704 101.69 111.379 100.29C110.803 97.8329 112.952 94.5905 113.923 92.4698C115.188 89.7081 116.441 86.9358 117.695 84.1634C121.408 83.4156 125.03 82.2511 128.002 80.1091C132.76 76.669 136.559 68.603 131.219 63.9077ZM122.47 74.0302C123.275 72.6414 124.182 71.5356 125.42 70.3231C125.446 70.2964 125.478 70.2857 125.521 70.275C125.345 70.9 125.217 71.4982 124.78 72.0858C124.161 72.9085 123.361 73.5334 122.475 74.0302H122.47Z" fill="#FEFEFE"/>
<path d="M52.6219 52.124C52.6219 54.6079 52.8619 56.3707 52.5419 57.5726C52.7819 58.6943 51.9017 59.4956 51.3415 59.9763C50.6214 60.2968 49.5811 61.018 48.7008 60.7776C47.3405 61.018 46.8604 60.6173 46.0601 59.9763C45.5 59.3353 44.6998 58.9347 44.7798 57.5726C45.0199 56.2906 44.8598 54.7682 44.7798 53.3259C44.8598 51.9638 44.7798 51.2427 44.6198 50.9221C44.3797 50.5215 44.0596 50.6016 43.6595 51.0023C43.0994 51.5632 42.3792 52.6048 41.8991 53.0054C40.8588 53.5663 40.2986 54.8483 39.4984 55.0887C38.8583 55.8899 37.738 56.1303 37.2578 55.9701C36.2976 55.6496 35.9775 55.7297 34.9372 54.9284C34.137 54.2874 33.8969 53.8868 33.977 52.6048C33.977 51.8035 34.5371 50.1209 35.3373 49.56C35.9775 48.278 36.9377 48.1178 37.898 46.8357C38.8583 46.355 39.2584 45.1531 39.9786 44.5121C40.9388 43.9512 41.4989 42.6692 42.2191 41.6276C42.4592 41.227 42.5392 40.9064 42.4592 40.6661C42.1391 40.1853 40.9388 40.1052 39.3384 40.1052C37.4179 39.9449 36.7777 39.6244 35.9775 39.0636C35.6574 38.8232 35.3373 38.0219 35.1773 36.82C34.9372 35.0573 36.2976 33.7753 37.978 33.4548C39.0183 33.2945 40.2186 33.5349 42.3792 33.3746C43.4995 33.2144 44.7798 32.6535 44.6998 30.4901C44.6998 28.7274 44.9399 27.7658 46.1402 27.3652C47.1804 26.6441 47.6606 26.6441 48.7008 26.564C49.181 26.564 50.7014 27.0447 51.1815 27.3652C52.0617 27.6857 52.6219 28.3267 52.5419 29.6889C52.5419 31.3715 52.8619 32.2529 53.8222 32.8138C54.7824 33.3746 56.4629 33.2945 57.4231 33.3746C58.7835 33.4548 59.5037 33.7753 60.0638 34.4964C60.544 35.3778 60.624 35.6182 60.864 36.82C61.0241 37.5412 60.704 38.4226 60.0638 39.1437C59.8238 39.3841 58.8635 40.2654 57.6632 40.1853C55.3426 40.1052 54.3823 40.2654 54.1423 40.8263C54.0623 40.9866 54.1423 41.2269 54.2223 41.4673C55.3426 42.7493 56.3028 43.2301 57.023 43.7108C57.8232 44.8326 58.4634 45.1531 59.1836 45.8742C59.8238 46.6755 59.8238 47.5569 60.0638 48.1178C59.3436 49.8805 58.3834 51.0824 57.023 51.2427C56.2228 51.6433 54.8625 50.7619 54.0623 49.9606C52.942 49.2395 52.4618 49.7203 52.6219 52.124Z" fill="#FEFEFE"/>
<path d="M92.3924 51.3228C92.6324 53.0855 92.6324 54.1272 91.6722 54.8483C91.2721 55.6496 89.9117 56.2906 89.1115 56.0502C87.6711 56.3707 86.1507 55.3291 85.2705 54.0471C84.4703 53.3259 84.3103 52.765 83.51 52.4445C82.7899 51.8035 82.3097 51.2427 81.8296 50.842C80.4692 49.4799 80.0691 49.7203 79.589 50.3613C79.1089 50.6818 79.429 52.9253 79.2689 53.9669C79.0289 55.4092 79.3489 56.2104 79.1889 57.2521C79.0289 58.6142 78.3087 59.1751 77.9886 59.6558C77.1084 60.2968 76.1481 60.4571 75.3479 60.4571C74.7077 60.377 73.5874 60.0565 72.7072 59.6558C72.3071 59.4956 71.4269 58.2937 71.4269 57.2521C71.7469 56.2104 71.5869 54.5278 71.5869 53.3259C71.5869 50.5215 71.7469 49.8004 71.1868 49.6401C70.6267 49.4799 70.3066 49.9606 69.1062 51.2427C68.226 51.7234 68.066 52.3644 67.5858 52.9253C67.0257 53.7265 65.9054 54.5278 64.7051 55.4893C63.5848 56.2906 63.0246 56.4508 62.0644 56.5309C60.7841 56.7713 60.3039 56.0502 59.6638 55.4893C58.7835 54.7682 58.7035 53.9669 58.6235 53.1657C58.4634 51.8837 59.7438 50.5215 60.8641 49.56C61.5843 48.5985 62.6245 48.4383 63.2647 47.3165C63.6648 46.1947 64.9452 46.1146 65.5853 44.9127C66.0654 44.432 67.3458 43.15 68.226 41.7878C68.7061 41.3071 68.7862 40.9064 68.4661 40.6661C68.146 40.3456 67.3458 40.1853 65.9854 40.1853C64.7851 40.1853 63.5048 40.1052 62.8646 39.0636C62.0644 38.1021 62.2244 37.5412 62.1444 36.82C61.9844 34.9772 63.3447 33.1343 64.9452 33.4548C65.8254 33.2144 67.1057 33.2945 69.1062 33.3746C71.1868 33.2945 71.4269 32.4933 71.4269 29.6889C71.6669 28.0864 71.907 28.0062 72.7872 27.3652C73.7475 27.0447 73.9075 26.6441 75.3479 26.564C75.828 26.564 76.9483 26.9646 77.8285 27.3652C78.7888 27.5255 78.9488 28.3267 79.1889 29.6889C79.1889 31.051 78.9488 32.0926 79.8291 32.8939C80.1492 33.4548 81.4295 33.5349 82.0697 33.3746C84.1502 33.7753 85.8307 33.0541 87.191 33.4548C88.9515 33.4548 89.9117 34.9772 89.9117 36.82C89.7517 38.9033 88.7114 40.1052 87.191 40.1853C84.5503 40.0251 83.19 40.3456 82.7899 40.9866C82.3097 41.7077 82.7899 42.2686 84.8704 44.1916C85.9107 44.7525 86.3908 45.7941 87.191 46.1947C87.9912 47.1562 88.6314 47.637 89.6717 48.1979C90.5519 49.1594 91.7522 49.7203 92.3924 51.3228Z" fill="#FEFEFE"/>
<path d="M78.5542 157.329C47.8954 158.173 18.6291 139.258 6.51922 110.968C-6.26281 82.3847 0.17088 47.0066 22.15 24.6088C64.9239 -19.6686 139.109 -1.38927 157.983 56.9742C160.501 64.7517 161.845 72.9299 162 81.1241C162.086 85.5844 158.543 89.2702 154.083 89.3556C149.512 89.4518 145.751 85.6752 145.863 81.0974C147.036 46.4404 119.797 15.5119 85.3827 11.7513C49.8746 7.0987 15.4496 31.8896 8.06629 67.0487C-0.170543 103.474 21.5312 140.754 57.0232 152.169C60.4801 153.312 64.0437 154.135 67.6393 154.781C71.2456 155.39 74.8946 155.694 78.5595 155.817C79.5304 155.817 79.5624 157.307 78.5595 157.329H78.5542Z" fill="#FEFEFE"/>
<path d="M33.2248 118.832C33.2088 119.104 33.1128 119.425 32.9047 119.521C32.7607 119.761 32.4726 119.761 32.1846 119.761C31.9285 119.841 31.6404 119.633 31.4484 119.521C31.1923 119.441 31.1603 119.152 31.1123 118.832C31.0803 118.671 31.0323 118.399 31.1123 118.143C31.0803 117.966 31.0803 117.71 31.1123 117.502C31.0963 117.245 31.1763 117.037 31.1123 116.845C31.1763 116.636 31.0803 116.444 31.1123 116.171C31.0483 115.979 31.1443 115.739 31.1123 115.514C31.0323 115.354 31.0803 115.114 31.1123 114.857C31.1443 114.665 31.1603 114.457 31.1123 114.2C31.1443 113.96 31.0643 113.768 31.1123 113.527C31.1603 113.367 31.0963 113.079 31.1123 112.87C31.0483 112.662 31.1763 112.422 31.1123 112.213C31.1603 111.925 31.1763 111.765 31.1123 111.556C31.1763 111.348 31.1603 111.091 31.1123 110.883C31.0643 110.739 31.1443 110.467 31.1123 110.226C31.0803 109.986 31.0803 109.745 31.1123 109.569C31.1283 109.329 31.0483 109.104 31.1123 108.912C31.1443 108.656 31.0323 108.431 31.1123 108.239C31.1283 107.935 31.2563 107.678 31.4484 107.55C31.6884 107.358 31.9605 107.229 32.1846 107.294C32.5046 107.358 32.7127 107.39 32.9047 107.55C33.1288 107.742 33.1288 107.999 33.2248 108.239C33.1608 108.495 33.1608 108.704 33.2248 108.912C33.2888 109.168 33.1928 109.393 33.2248 109.569C33.2568 109.745 33.2568 110.098 33.2248 110.226C33.1448 110.499 33.2408 110.707 33.2248 110.883C33.2568 111.091 33.2088 111.396 33.2248 111.556C33.2728 111.781 33.1928 112.005 33.2248 112.213C33.2408 112.406 33.2088 112.694 33.2248 112.87C33.2568 113.175 33.1608 113.319 33.2248 113.527C33.1448 113.768 33.2728 114.024 33.2248 114.2C33.2408 114.473 33.2088 114.601 33.2248 114.857C33.2088 115.034 33.1448 115.386 33.2248 115.514C33.2888 115.707 33.2248 116.027 33.2248 116.171C33.1608 116.444 33.1768 116.636 33.2248 116.845C33.1448 117.085 33.2888 117.245 33.2248 117.502C33.2888 117.694 33.2568 117.918 33.2248 118.159C33.2888 118.447 33.2088 118.607 33.2248 118.832Z" fill="#FEFEFE"/>
<path d="M45.0519 118.207C44.9879 118.495 45.0519 118.688 44.9559 118.864C44.8759 119.072 44.7799 119.345 44.5878 119.441C44.3798 119.649 44.0437 119.713 43.6436 119.777C43.4195 119.745 43.0834 119.713 42.9394 119.665C42.7473 119.665 42.5233 119.425 42.3632 119.28C42.1872 119.088 42.0432 118.88 41.9631 118.736C41.8671 118.511 41.7071 118.303 41.6751 118.143C41.579 117.886 41.419 117.662 41.355 117.406C41.1789 117.197 41.1789 116.973 41.0349 116.668C40.9389 116.476 40.7788 116.236 40.7148 115.931C40.5228 115.659 40.4907 115.499 40.3787 115.194C40.3307 114.906 40.1707 114.665 40.0586 114.457C39.8986 114.233 39.8506 114.024 39.7385 113.704C39.6265 113.543 39.4345 113.271 39.4185 112.967C39.3064 112.694 39.1784 112.406 39.0824 112.229C38.9063 112.037 38.8263 111.749 38.7623 111.476C38.5862 111.252 38.5862 110.931 38.4742 110.707C38.3942 110.547 38.3942 110.451 38.2662 110.242C38.1861 110.114 37.9461 110.098 37.9461 110.322C37.9461 110.547 37.8981 110.659 37.9301 110.835C37.9621 111.011 37.9141 111.188 37.9301 111.364C37.9781 111.669 37.8821 111.813 37.9461 112.037C37.8821 112.277 38.0101 112.534 37.9621 112.71C37.8821 112.967 37.9461 113.191 37.9621 113.479C37.9781 113.704 38.0101 113.976 37.9621 114.249C38.0101 114.521 37.9941 114.793 37.9621 115.018C37.9621 115.226 37.9461 115.547 37.9621 115.787C37.9461 116.075 37.8981 116.236 37.9621 116.556C37.9781 116.813 37.8981 117.085 37.9621 117.325C37.9141 117.63 37.9301 117.806 37.9621 118.095C37.9941 118.399 37.9621 118.559 37.9621 118.896C38.0101 119.184 37.8821 119.361 37.658 119.537C37.4499 119.761 37.2899 119.793 36.9858 119.777C36.6657 119.793 36.5377 119.681 36.2976 119.537C36.1696 119.312 36.0736 119.168 36.0096 118.896C36.0416 118.495 36.0096 118.063 35.9936 117.614C36.0416 117.149 36.0416 116.797 35.9936 116.364C35.9295 115.883 35.9295 115.515 35.9936 115.114C35.9456 114.777 35.9936 114.217 35.9936 113.848C35.9616 113.399 35.9776 112.999 35.9936 112.598C35.9936 112.261 36.0576 111.845 35.9936 111.348C36.0256 110.867 36.0096 110.579 35.9936 110.098C35.9456 109.681 35.9135 109.313 35.9936 108.848C36.0256 108.608 35.9776 108.415 36.0896 108.191C36.2016 108.047 36.2496 107.79 36.4257 107.646C36.4897 107.566 36.6978 107.47 36.8898 107.39C37.0979 107.358 37.2899 107.358 37.4179 107.31C37.77 107.326 37.9621 107.39 38.2502 107.438C38.4422 107.55 38.7623 107.678 38.9383 107.887C39.0664 108.079 39.1944 108.239 39.3224 108.415C39.4185 108.576 39.5945 108.784 39.6105 108.992C39.6745 109.233 39.8506 109.409 39.8826 109.633C39.9306 109.842 40.0266 110.098 40.1707 110.29C40.2827 110.467 40.2827 110.723 40.4427 110.931C40.5868 111.124 40.6188 111.412 40.7308 111.588C40.8268 111.845 40.8748 112.037 41.0029 112.229C41.0829 112.47 41.2429 112.726 41.291 112.886C41.387 113.159 41.547 113.399 41.579 113.543C41.627 113.736 41.7231 114.008 41.8511 114.184C41.9791 114.505 42.0432 114.665 42.1712 114.954C42.2512 115.162 42.2992 115.547 42.4753 115.723C42.6353 115.947 42.6033 116.091 42.6993 116.3C42.7633 116.428 42.7793 116.636 42.8594 116.748C42.9234 116.829 43.0834 116.829 43.1154 116.7C43.1314 116.604 43.1474 116.412 43.1474 116.3C43.1314 116.043 43.1635 115.819 43.1154 115.547C43.1795 115.338 43.1314 114.986 43.1474 114.697C43.0994 114.473 43.1635 114.168 43.1474 113.848C43.1474 113.64 43.1635 113.399 43.0994 113.143C43.0834 112.999 43.1314 112.742 43.0994 112.438C43.0834 112.229 43.0994 111.957 43.0994 111.749C43.0994 111.54 43.0674 111.3 43.0994 111.028C43.1314 110.755 43.1314 110.643 43.0994 110.322C43.0194 110.146 43.0994 109.89 43.0834 109.617C43.1154 109.377 43.0674 109.217 43.0834 108.928C43.1314 108.688 43.0514 108.447 43.0994 108.191C43.0674 107.999 43.1314 107.742 43.3875 107.55C43.5636 107.39 43.8196 107.278 44.0757 107.31C44.3798 107.39 44.5878 107.39 44.7639 107.55C44.9559 107.758 44.9879 107.983 45.0519 108.191C44.9879 108.367 45.0519 108.688 45.0519 108.832C45.084 109.088 44.9879 109.329 45.0519 109.457C45.0359 109.858 45.0199 110.226 45.0519 110.707C45.0359 111.188 44.9879 111.508 45.0519 111.957C45.068 112.358 45.0359 112.758 45.0519 113.207C45.0519 113.688 45.0359 114.072 45.0519 114.457C45.084 114.954 45.1 115.29 45.0519 115.707C45.068 116.059 44.9879 116.54 45.0519 116.957C45.1 117.357 44.9719 117.838 45.0519 118.207Z" fill="#FEFEFE"/>
<path d="M54.8946 113.607C54.9106 113.912 54.8466 113.992 54.7665 114.232C54.6225 114.505 54.5905 114.633 54.4144 114.761C54.2704 114.889 54.1104 115.098 53.9023 115.114C53.7263 115.274 53.4862 115.242 53.2621 115.242C52.9901 115.306 52.862 115.21 52.638 115.114C52.4139 115.002 52.2379 114.857 52.1098 114.761C51.9818 114.569 51.7737 114.393 51.7577 114.232C51.7097 114.008 51.5497 113.8 51.6297 113.607C51.6777 113.431 51.6617 113.159 51.7577 112.966C51.7737 112.79 52.0298 112.582 52.1098 112.454C52.3179 112.245 52.5099 112.181 52.638 112.101C52.894 112.037 53.0861 111.957 53.2621 111.973C53.5182 112.037 53.6622 112.005 53.8863 112.101C54.1104 112.197 54.1904 112.357 54.4144 112.454C54.5585 112.598 54.6865 112.742 54.7665 112.982C54.8946 113.143 54.9426 113.319 54.8946 113.607Z" fill="#FEFEFE"/>
<path d="M68.8982 116.909C68.7702 117.181 68.8022 117.389 68.7061 117.582C68.6421 117.79 68.4981 118.078 68.3861 118.207C68.306 118.431 68.066 118.607 67.9379 118.767C67.6659 119.024 67.5698 119.152 67.2658 119.28C67.0097 119.505 66.7216 119.601 66.5136 119.633C66.1935 119.745 65.9214 119.809 65.7134 119.825C65.4893 119.905 65.1212 119.921 64.8811 119.889C64.5611 119.873 64.0489 119.905 63.7608 119.793C63.5528 119.777 63.4408 119.793 63.2167 119.665C63.0247 119.665 62.9126 119.649 62.6886 119.489C62.4805 119.408 62.3045 119.376 62.1764 119.248C62.0644 119.2 61.8723 119.104 61.7123 118.96C61.6163 118.799 61.4722 118.735 61.2802 118.591C61.0881 118.399 60.9761 118.303 60.8961 118.158C60.7681 117.95 60.64 117.63 60.624 117.421C60.608 117.245 60.7521 116.892 60.9441 116.78C61.0561 116.7 61.4082 116.556 61.6163 116.524C61.8884 116.524 62.1604 116.604 62.3205 116.844C62.4965 116.989 62.5765 117.181 62.8006 117.373C62.9926 117.501 63.0567 117.646 63.3287 117.79C63.5208 118.014 63.8409 118.062 64.0809 118.11C64.321 118.126 64.6091 118.142 64.9131 118.191C65.2492 118.126 65.5693 118.142 65.7774 118.046C66.1135 117.966 66.3375 117.79 66.4816 117.582C66.7056 117.437 66.7536 117.165 66.8497 116.957C66.8657 116.732 67.0257 116.444 66.9617 116.219C66.9937 115.963 66.9457 115.723 66.7856 115.45C66.7056 115.21 66.4656 115.05 66.2735 114.873C66.0014 114.745 65.8734 114.617 65.6173 114.521C65.2972 114.473 65.0892 114.377 64.8811 114.28C64.6891 114.216 64.513 114.232 64.305 114.12C64.1129 114.04 63.8729 113.976 63.6808 113.928C63.4728 113.928 63.2487 113.816 63.0567 113.687C62.8966 113.671 62.7046 113.495 62.4645 113.383C62.3045 113.191 62.0484 113.127 61.9524 112.982C61.7603 112.886 61.5363 112.678 61.4882 112.421C61.3762 112.197 61.2642 111.957 61.2002 111.797C61.1041 111.572 61.0401 111.3 61.0401 111.123C60.9921 110.963 60.9281 110.627 60.9921 110.418C61.0081 110.258 60.9761 110.082 61.0401 109.809C60.9921 109.585 61.1362 109.489 61.2002 109.249C61.3282 109.024 61.3602 108.848 61.4722 108.704C61.5363 108.559 61.7123 108.447 61.8403 108.223C61.9844 108.079 62.2084 107.854 62.4645 107.742C62.7206 107.646 62.9126 107.454 63.1527 107.438C63.4087 107.326 63.6008 107.293 63.9049 107.245C64.0969 107.245 64.449 107.245 64.6731 107.197C65.0092 107.149 65.2972 107.245 65.6333 107.277C65.9374 107.358 66.1935 107.342 66.5456 107.518C66.8497 107.63 67.0577 107.774 67.3778 107.934C67.5698 107.983 67.6179 108.159 67.7779 108.207C67.8899 108.367 68.002 108.399 68.146 108.559C68.3541 108.784 68.3861 109.008 68.4661 109.249C68.4501 109.505 68.4181 109.761 68.178 109.954C68.05 110.146 67.7139 110.226 67.4578 110.242C67.2017 110.258 66.9137 110.194 66.7376 109.954C66.5776 109.761 66.3695 109.697 66.3055 109.521C66.0815 109.393 65.9854 109.249 65.8414 109.184C65.6974 109.056 65.5533 109.008 65.3293 108.96C65.1852 108.928 64.9772 108.912 64.7371 108.88C64.465 108.96 64.289 108.848 64.0809 108.976C63.8409 108.992 63.6648 109.104 63.5208 109.232C63.3607 109.441 63.2967 109.585 63.1367 109.681C63.0567 109.793 62.9926 110.13 62.9766 110.322C62.9446 110.643 62.9446 110.867 63.1207 111.091C63.1847 111.348 63.3287 111.524 63.5848 111.684C63.8569 111.813 64.0489 111.909 64.241 112.021C64.545 112.197 64.7051 112.181 64.9612 112.245C65.1852 112.389 65.3453 112.357 65.5373 112.405C65.7614 112.421 65.9374 112.63 66.2575 112.63C66.5616 112.678 66.7216 112.87 66.9617 112.918C67.1217 113.062 67.3618 113.159 67.6179 113.287C67.7459 113.463 68.082 113.559 68.194 113.768C68.3541 113.912 68.4501 114.168 68.5781 114.312C68.7061 114.585 68.6901 114.697 68.8022 114.905C68.7862 115.13 68.9462 115.37 68.9302 115.546C68.9622 115.819 68.9462 115.947 68.9622 116.187C68.9942 116.38 68.9782 116.748 68.8982 116.909Z" fill="#FEFEFE"/>
<path d="M73.1394 118.832C73.1234 119.104 73.0274 119.425 72.8193 119.521C72.6753 119.761 72.3872 119.761 72.0991 119.761C71.843 119.841 71.555 119.633 71.3629 119.521C71.1068 119.441 71.0748 119.152 71.0268 118.832C70.9948 118.671 70.9468 118.399 71.0268 118.143C70.9948 117.966 70.9948 117.71 71.0268 117.502C71.0108 117.245 71.0908 117.037 71.0268 116.845C71.0908 116.636 70.9948 116.444 71.0268 116.171C70.9628 115.979 71.0588 115.739 71.0268 115.514C70.9468 115.354 70.9948 115.114 71.0268 114.857C71.0588 114.665 71.0748 114.457 71.0268 114.2C71.0588 113.96 70.9788 113.768 71.0268 113.527C71.0748 113.367 71.0108 113.079 71.0268 112.87C70.9628 112.662 71.0908 112.422 71.0268 112.213C71.0748 111.925 71.0908 111.765 71.0268 111.556C71.0908 111.348 71.0748 111.091 71.0268 110.883C70.9788 110.739 71.0588 110.467 71.0268 110.226C70.9948 109.986 70.9948 109.745 71.0268 109.569C71.0428 109.329 70.9628 109.104 71.0268 108.912C71.0588 108.656 70.9468 108.431 71.0268 108.239C71.0428 107.935 71.1709 107.678 71.3629 107.55C71.603 107.358 71.875 107.229 72.0991 107.294C72.4192 107.358 72.6272 107.39 72.8193 107.55C73.0434 107.742 73.0434 107.999 73.1394 108.239C73.0754 108.495 73.0754 108.704 73.1394 108.912C73.2034 109.168 73.1074 109.393 73.1394 109.569C73.1714 109.745 73.1714 110.098 73.1394 110.226C73.0594 110.499 73.1554 110.707 73.1394 110.883C73.1714 111.091 73.1234 111.396 73.1394 111.556C73.1874 111.781 73.1074 112.005 73.1394 112.213C73.1554 112.406 73.1234 112.694 73.1394 112.87C73.1714 113.175 73.0754 113.319 73.1394 113.527C73.0594 113.768 73.1874 114.024 73.1394 114.2C73.1554 114.473 73.1234 114.601 73.1394 114.857C73.1234 115.034 73.0594 115.386 73.1394 115.514C73.2034 115.707 73.1394 116.027 73.1394 116.171C73.0754 116.444 73.0914 116.636 73.1394 116.845C73.0594 117.085 73.2034 117.245 73.1394 117.502C73.2034 117.694 73.1714 117.918 73.1394 118.159C73.2034 118.447 73.1234 118.607 73.1394 118.832Z" fill="#FEFEFE"/>
<path d="M85.7987 114.136C85.7827 114.344 85.7187 114.585 85.7347 114.809C85.6227 115.065 85.6867 115.29 85.5907 115.466C85.5587 115.738 85.4466 115.947 85.3986 116.107C85.2386 116.283 85.2386 116.588 85.1426 116.716C85.0945 116.892 84.9345 117.085 84.8065 117.309C84.6464 117.517 84.5824 117.742 84.4224 117.838C84.2783 118.094 84.0383 118.222 83.9422 118.335C83.8142 118.415 83.6542 118.591 83.5261 118.687C83.3661 118.815 83.174 118.815 83.078 118.976C82.934 119.072 82.7099 119.168 82.6139 119.216C82.3898 119.344 82.2458 119.328 82.1178 119.408C81.7016 119.584 81.3976 119.649 81.0775 119.665C80.7574 119.761 80.4213 119.793 80.0052 119.745C79.7811 119.793 79.4451 119.729 79.189 119.745C78.8529 119.761 78.7089 119.729 78.3728 119.745C77.9727 119.825 77.6846 119.761 77.3005 119.649C77.1724 119.633 76.9164 119.601 76.7723 119.472C76.5483 119.408 76.5003 119.28 76.3562 119.152C76.1802 118.895 75.9721 118.639 75.9881 118.383C75.9401 118.19 75.9081 117.758 75.9081 117.533C75.9561 117.149 75.9561 116.892 75.9081 116.54C75.8441 116.139 75.8441 115.851 75.9081 115.546C75.8601 115.29 75.9081 114.809 75.9081 114.537C75.8761 114.168 75.8921 113.847 75.9081 113.527C75.9081 113.271 75.9721 112.934 75.9081 112.517C75.9401 112.117 75.9241 111.924 75.9081 111.524C75.8601 111.187 75.8281 110.899 75.9081 110.514C75.8281 110.194 75.8921 109.825 75.9081 109.521C75.8761 109.184 75.8921 108.848 76.0041 108.607C76.1002 108.271 76.1482 107.998 76.4523 107.806C76.6443 107.662 76.7723 107.55 76.8684 107.534C76.9964 107.502 77.2365 107.405 77.3645 107.389C77.6526 107.389 78.0847 107.325 78.3728 107.309C78.6929 107.245 78.9809 107.309 79.189 107.309C79.5411 107.325 79.7971 107.293 80.0212 107.309C80.2453 107.245 80.3733 107.309 80.6294 107.325C80.8854 107.325 80.9655 107.421 81.2375 107.389C81.3816 107.469 81.7016 107.486 81.8297 107.518C82.0217 107.646 82.1658 107.678 82.4218 107.678C82.5339 107.774 82.7259 107.838 82.966 107.902C83.206 108.03 83.2861 108.127 83.4941 108.207C83.6862 108.255 83.8622 108.511 83.9902 108.559C84.0543 108.735 84.3103 108.88 84.4224 108.992C84.5664 109.12 84.6784 109.248 84.8065 109.473C84.9025 109.633 84.9825 109.745 85.1105 109.985C85.1746 110.226 85.2226 110.322 85.3506 110.53C85.4306 110.707 85.4626 110.867 85.5427 111.091C85.5907 111.348 85.6227 111.508 85.6707 111.684C85.7507 111.957 85.7827 112.069 85.7667 112.277C85.8467 112.646 85.7827 113.078 85.8307 113.463C85.8627 113.719 85.8307 113.847 85.7987 114.136ZM83.7022 114.376C83.7982 114.056 83.7822 113.751 83.7502 113.463C83.6702 113.158 83.7822 112.87 83.7022 112.485C83.6862 112.229 83.5901 111.796 83.5101 111.508C83.4141 111.155 83.222 110.979 83.142 110.626C83.078 110.45 83.03 110.354 82.886 110.226C82.8379 110.114 82.7099 110.001 82.5499 109.857C82.4218 109.697 82.1818 109.649 82.0217 109.473C81.8777 109.393 81.5896 109.312 81.4296 109.232C81.2215 109.12 80.9815 109.168 80.7734 109.088C80.5974 109.136 80.2773 109.04 80.1172 109.04C79.7011 109.024 79.317 109.072 78.8529 109.04C78.4848 109.008 78.2127 109.088 78.1167 109.232C78.0047 109.409 77.9567 109.697 78.0047 109.841C77.9567 110.146 77.9567 110.482 78.0047 110.755C78.0207 111.027 77.9407 111.38 78.0047 111.684C78.0527 111.957 77.9887 112.341 78.0047 112.598C78.0047 112.966 77.9567 113.239 78.0047 113.527C77.9887 113.847 78.0527 114.216 78.0047 114.456C78.0047 114.809 78.0207 115.097 78.0047 115.386C77.9727 115.674 77.9727 116.027 78.0047 116.299C78.0527 116.636 78.0207 116.94 78.0047 117.213C77.9887 117.485 78.0367 117.678 78.1647 117.854C78.3088 118.03 78.6288 118.014 78.8529 118.014C79.333 118.03 79.7011 118.014 80.1172 118.014C80.4213 118.094 80.5974 117.998 80.8534 117.95C81.0615 117.966 81.2215 117.854 81.5256 117.742C81.7177 117.678 81.9257 117.533 82.1658 117.389C82.3418 117.229 82.5979 117.085 82.6939 116.908C82.966 116.636 83.062 116.476 83.206 116.155C83.2701 115.931 83.3981 115.594 83.5261 115.29C83.5261 115.017 83.7342 114.649 83.7022 114.376Z" fill="#FEFEFE"/>
<path d="M96.0574 118.751C96.0734 119.056 96.0094 119.216 95.8334 119.36C95.6573 119.473 95.4653 119.553 95.2572 119.617C94.8251 119.697 94.377 119.681 94.0249 119.617C93.5608 119.649 93.1447 119.633 92.8086 119.617C92.4725 119.649 91.9603 119.649 91.5923 119.617C91.2242 119.569 90.824 119.697 90.3919 119.617C90.1199 119.633 89.7198 119.601 89.3196 119.537C89.0956 119.553 88.8715 119.441 88.8075 119.344C88.5995 119.296 88.4554 119.152 88.3754 119.024C88.1033 118.816 88.1353 118.527 88.0073 118.255C87.9913 117.918 87.9913 117.694 87.9273 117.405C87.9273 117.085 87.8793 116.764 87.9273 116.444C87.8633 116.155 87.9593 115.851 87.9273 115.482C87.9433 115.21 87.8953 114.889 87.9273 114.505C87.8473 114.152 87.9273 113.928 87.9273 113.527C87.9753 113.175 87.9273 112.854 87.9273 112.566C87.8793 112.261 87.9433 111.989 87.9273 111.588C87.9273 111.348 87.8473 110.995 87.9273 110.627C87.9273 110.258 87.9113 109.906 87.9273 109.649C87.9593 109.345 87.8953 109.056 88.0233 108.736C88.1513 108.479 88.2154 108.143 88.4714 107.934C88.6155 107.822 88.6795 107.758 88.8875 107.662C88.9996 107.646 89.1916 107.518 89.3837 107.518C89.7518 107.486 90.1199 107.486 90.3919 107.438C90.792 107.518 91.1761 107.438 91.4962 107.438C91.8163 107.502 92.1684 107.438 92.6005 107.438C93.0166 107.422 93.2567 107.486 93.7048 107.438C94.0089 107.486 94.521 107.47 94.8411 107.454C95.0172 107.47 95.3372 107.534 95.4173 107.71C95.5133 107.886 95.6413 108.095 95.6413 108.303C95.6413 108.511 95.6253 108.736 95.4173 108.912C95.3372 109.072 95.0492 109.2 94.8411 109.168C94.489 109.152 94.1209 109.104 93.8328 109.168C93.4807 109.233 93.0966 109.136 92.8406 109.168C92.5205 109.152 92.1524 109.136 91.8483 109.168C91.5122 109.233 91.1761 109.2 90.8561 109.168C90.552 109.152 90.2639 109.249 90.1199 109.377C89.9918 109.521 89.9758 109.745 89.9758 109.986C89.9758 110.13 89.9918 110.402 90.0078 110.627C89.9918 110.899 90.0238 111.075 90.0078 111.492C89.9918 111.925 90.0078 112.101 90.1679 112.229C90.3599 112.373 90.6 112.422 90.728 112.389C91.1921 112.422 91.6723 112.357 91.9283 112.389C92.3284 112.373 92.6165 112.373 92.9206 112.389C93.3047 112.47 93.5768 112.389 93.9289 112.405C94.1689 112.389 94.377 112.566 94.505 112.662C94.6811 112.886 94.7291 113.014 94.7291 113.255C94.7451 113.575 94.6491 113.655 94.505 113.864C94.297 114.104 94.2009 114.136 93.9289 114.12C93.5768 114.072 93.1607 114.2 92.9206 114.12C92.6485 114.088 92.2644 114.184 91.9283 114.12C91.5442 114.168 91.1441 114.136 90.648 114.12C90.2319 114.152 90.0398 114.248 90.0078 114.521C89.9438 115.002 90.0558 115.322 90.0078 115.578C89.9598 115.883 90.0238 116.139 90.0078 116.332C89.9758 116.652 89.9918 116.796 90.0078 117.085C89.9918 117.293 90.0398 117.55 90.1679 117.726C90.3119 117.902 90.632 117.854 90.8561 117.886C91.1441 117.934 91.5923 117.918 91.9443 117.886C92.3445 117.87 92.6645 117.95 93.0486 117.886C93.4647 117.902 93.7368 117.902 94.1369 117.886C94.521 117.854 94.8571 117.934 95.2572 117.902C95.5133 117.87 95.6413 117.966 95.8334 118.159C96.0094 118.271 96.0414 118.463 96.0574 118.751Z" fill="#FEFEFE"/>
</svg>
