<svg width="539" height="496" viewBox="0 0 539 496" fill="none" xmlns="http://www.w3.org/2000/svg">
<circle cx="138.5" cy="350.5" r="107.5" fill="#70A81A"/>
<circle cx="138" cy="338" r="137" stroke="#9DC165" stroke-width="2"/>
<circle cx="138.5" cy="74.5" r="10.5" fill="#9DC165"/>
<circle cx="459.5" cy="78.5" r="38" stroke="#9DC165"/>
<path d="M537.5 248C537.5 384.135 426.917 494.5 290.5 494.5C154.083 494.5 43.5 384.135 43.5 248C43.5 111.865 154.083 1.5 290.5 1.5C426.917 1.5 537.5 111.865 537.5 248Z" stroke="#9DC165" stroke-width="3"/>
<path d="M521 248C521 375.023 417.804 478 290.5 478C163.196 478 60 375.023 60 248C60 120.977 163.196 18 290.5 18C417.804 18 521 120.977 521 248Z" stroke="#9DC165" stroke-width="2"/>
<ellipse cx="455.5" cy="74" rx="28.5" ry="29" fill="#9DC165"/>
</svg>
